<svg xmlns="http://www.w3.org/2000/svg" width="1em" height="1em" viewBox="0 0 24 24"><path fill="white" d="M11.285 9.23h8.23q-.655-1.763-2.091-3.116T14.15 4.3zm-2.07 2L13.37 4.1q-.275-.05-.684-.075T12 4q-1.65 0-3.075.625T6.4 6.3zM4.25 14h5.68L5.855 6.908Q4.977 7.99 4.488 9.266Q4 10.542 4 12q0 .525.063 1.013T4.25 14m5.638 5.7l2.854-4.93H4.485q.655 1.763 2.11 3.116T9.888 19.7M12 20q1.65 0 3.075-.625T17.6 17.7l-2.815-4.93l-4.116 7.092q.275.069.653.103Q11.7 20 12 20m6.146-2.908q.8-1.025 1.327-2.358T20 12q0-.525-.062-1.012T19.75 10h-5.68zM12 21q-1.858 0-3.5-.71t-2.86-1.93t-1.93-2.86T3 12q0-1.863.71-3.503T5.64 5.64T8.5 3.711T12 3q1.863 0 3.503.71t2.858 1.93t1.928 2.857T21 12q0 1.858-.71 3.5t-1.93 2.86t-2.857 1.93T12 21"/></svg>